<svg id="svg" version="1.1" xmlns="http://www.w3.org/2000/svg" xmlns:xlink="http://www.w3.org/1999/xlink" width="400" height="400" viewBox="0, 0, 400,400"><g id="svgg"><path id="path0" d="M214.257 117.130 C 212.680 123.645,188.889 233.720,188.889 234.502 C 188.889 237.016,192.290 241.054,195.054 241.822 C 196.011 242.088,205.936 242.219,225.185 242.221 L 253.889 242.224 261.055 246.302 C 267.524 249.983,274.551 254.459,274.998 255.182 C 275.165 255.452,273.934 255.628,268.241 256.147 L 265.556 256.392 265.556 258.417 L 265.556 260.442 267.408 260.314 L 269.260 260.185 269.259 264.886 C 269.259 270.174,269.200 270.060,271.798 269.752 L 273.704 269.526 273.704 264.598 L 273.704 259.670 275.463 259.557 C 277.074 259.454,277.232 259.359,277.339 258.426 C 277.850 253.992,287.319 267.866,288.904 275.370 L 289.374 277.593 290.072 275.000 C 293.632 261.777,288.323 252.322,272.488 243.690 C 270.059 242.366,269.922 242.232,270.988 242.227 C 271.633 242.225,272.225 242.029,272.304 241.793 C 272.393 241.525,273.415 241.932,275.020 242.873 C 285.715 249.146,291.280 255.883,293.083 264.743 C 293.628 267.422,293.754 267.310,294.424 263.543 C 296.499 251.878,291.129 242.673,277.870 235.166 C 275.717 233.946,274.444 232.999,274.444 232.615 C 274.444 232.279,275.535 227.109,276.867 221.126 C 279.551 209.079,279.514 209.501,277.963 208.525 L 276.852 207.825 274.630 209.296 C 271.189 211.572,264.809 215.059,258.704 218.001 L 253.148 220.678 251.481 219.735 C 250.565 219.217,249.065 218.218,248.148 217.516 C 246.584 216.318,246.474 216.287,246.363 217.009 C 246.015 219.273,242.175 214.186,241.622 210.729 C 241.379 209.208,241.356 209.186,240.912 210.042 C 240.173 211.467,239.567 215.031,239.828 216.422 L 240.069 217.706 231.837 217.756 L 223.606 217.805 223.815 216.773 C 223.931 216.205,227.703 198.958,232.198 178.446 C 236.693 157.935,240.370 141.060,240.370 140.946 C 240.370 140.833,245.454 140.741,251.667 140.741 C 257.880 140.741,262.959 140.866,262.954 141.019 C 262.950 141.171,262.310 144.271,261.533 147.906 L 260.120 154.517 262.004 155.749 C 268.889 160.254,287.609 171.782,287.683 171.563 C 287.733 171.416,290.104 160.630,292.953 147.593 L 298.133 123.889 297.207 121.985 C 296.065 119.636,293.514 117.225,291.613 116.697 C 290.642 116.427,278.081 116.300,252.322 116.298 L 214.459 116.296 214.257 117.130 M251.852 192.354 C 251.852 192.460,251.269 195.067,250.556 198.148 C 249.843 201.229,249.259 203.976,249.259 204.252 C 249.259 204.577,251.485 203.691,255.556 201.745 C 259.019 200.089,261.852 198.639,261.852 198.524 C 261.852 198.333,252.920 192.579,252.167 192.284 C 251.994 192.216,251.852 192.247,251.852 192.354 M262.778 206.130 C 259.519 207.838,254.691 210.237,252.049 211.459 C 247.737 213.456,246.064 214.706,246.765 215.407 C 246.909 215.551,258.270 210.526,261.481 208.898 C 267.779 205.705,270.418 204.022,269.972 203.485 C 269.332 202.713,269.207 202.759,262.778 206.130 M207.037 255.532 C 198.886 257.177,198.532 269.800,206.638 269.765 C 209.964 269.751,212.849 267.406,213.920 263.847 C 215.601 258.263,212.438 254.442,207.037 255.532 M217.407 256.094 L 215.741 256.516 215.640 263.258 L 215.539 270.000 217.570 270.000 L 219.601 270.000 219.708 266.759 L 219.815 263.519 222.173 266.759 C 224.588 270.079,225.000 270.334,226.828 269.639 L 227.778 269.278 227.778 262.602 L 227.778 255.926 225.572 255.926 L 223.366 255.926 223.257 258.598 L 223.148 261.269 221.544 258.803 C 219.481 255.633,219.411 255.587,217.407 256.094 M192.966 256.516 C 187.704 258.797,186.512 267.054,191.111 269.351 C 193.391 270.490,196.878 270.079,199.058 268.414 C 200.111 267.611,198.208 264.584,196.916 265.006 C 192.951 266.302,190.844 264.287,193.216 261.469 C 194.125 260.389,194.344 260.307,195.798 260.506 C 197.356 260.720,199.259 258.866,199.259 257.133 C 199.259 256.008,195.082 255.598,192.966 256.516 M230.185 256.243 L 229.074 256.488 228.973 263.244 L 228.872 270.000 230.903 270.000 L 232.934 270.000 233.041 266.759 L 233.148 263.519 235.539 266.759 C 237.970 270.054,238.386 270.314,240.161 269.639 L 241.111 269.278 241.111 262.602 L 241.111 255.926 239.081 255.926 C 236.738 255.926,236.387 256.471,236.798 259.471 C 237.100 261.671,236.780 261.531,234.815 258.598 C 233.056 255.974,232.557 255.720,230.185 256.243 M247.593 256.113 C 247.389 256.183,246.097 256.350,244.722 256.483 L 242.222 256.726 242.222 263.592 L 242.222 270.457 245.093 270.216 C 246.671 270.083,248.838 269.878,249.907 269.759 L 251.852 269.544 251.852 267.720 L 251.852 265.895 249.074 266.147 C 246.724 266.360,246.296 266.312,246.296 265.835 C 246.296 265.149,247.386 264.827,249.722 264.820 L 251.481 264.815 251.481 262.925 L 251.481 261.036 248.889 261.296 C 246.450 261.541,246.296 261.512,246.296 260.810 C 246.296 260.151,246.622 260.033,249.074 259.803 L 251.852 259.543 251.852 257.734 L 251.852 255.926 249.907 255.955 C 248.838 255.971,247.796 256.042,247.593 256.113 M257.780 256.516 C 252.519 258.797,251.326 267.054,255.926 269.351 C 258.206 270.490,261.693 270.079,263.873 268.414 C 264.925 267.611,263.023 264.584,261.730 265.006 C 257.766 266.302,255.659 264.287,258.030 261.469 C 258.939 260.389,259.159 260.307,260.612 260.506 C 262.171 260.720,264.074 258.866,264.074 257.133 C 264.074 256.008,259.897 255.598,257.780 256.516 M209.556 260.444 C 210.770 261.658,209.492 264.794,207.558 265.347 C 206.482 265.655,204.815 264.285,204.815 263.093 C 204.815 261.042,208.240 259.128,209.556 260.444 " stroke="none" fill="#1896cc" fill-rule="evenodd"></path><path id="path1" d="M0.000 200.000 L 0.000 400.000 200.000 400.000 L 400.000 400.000 400.000 200.000 L 400.000 0.000 200.000 0.000 L 0.000 0.000 0.000 200.000 M209.816 116.759 C 209.727 117.014,204.138 142.552,197.396 173.511 C 190.654 204.470,185.107 229.826,185.069 229.858 C 184.958 229.951,158.716 200.340,158.580 199.968 C 158.507 199.767,164.277 199.630,172.747 199.630 L 187.037 199.630 187.036 196.759 C 187.036 195.181,187.298 184.375,187.618 172.746 C 187.939 161.117,188.064 151.090,187.897 150.464 C 187.625 149.447,186.594 151.780,178.310 172.162 L 169.027 195.000 157.527 195.185 L 146.027 195.370 153.215 203.704 C 157.169 208.287,160.668 212.417,160.992 212.880 C 161.555 213.688,161.319 214.337,155.522 227.973 L 149.465 242.222 132.285 242.222 C 116.081 242.222,115.119 242.185,115.341 241.574 C 115.471 241.218,127.528 212.884,142.136 178.611 L 168.694 116.296 189.336 116.296 C 205.688 116.296,209.943 116.393,209.816 116.759 M292.387 116.819 C 294.104 117.537,296.365 119.883,297.401 122.024 L 298.263 123.805 293.113 147.485 C 290.281 160.509,287.865 171.328,287.745 171.526 C 287.579 171.801,261.713 156.074,260.264 154.818 C 260.031 154.616,262.041 144.076,262.824 141.389 C 263.001 140.782,262.304 140.741,251.784 140.744 L 240.556 140.747 232.252 178.800 C 227.685 199.728,223.876 217.060,223.787 217.315 C 223.496 218.144,237.370 217.963,238.003 217.130 C 238.472 216.512,238.496 216.512,238.507 217.130 C 238.513 217.496,238.800 217.777,239.167 217.776 C 239.726 217.775,239.818 217.382,239.837 214.906 C 239.853 212.970,240.078 211.555,240.531 210.556 L 241.202 209.074 241.650 210.743 C 242.199 212.783,242.690 213.743,244.354 216.036 C 245.822 218.057,245.957 218.026,246.516 215.546 L 246.922 213.745 245.868 213.956 C 244.666 214.196,243.647 212.441,243.185 209.331 L 242.948 207.737 245.826 206.416 C 247.409 205.689,248.745 205.059,248.796 205.016 C 248.847 204.973,249.479 202.285,250.200 199.043 C 250.921 195.801,251.596 192.866,251.699 192.522 C 251.854 192.007,252.823 192.486,257.108 195.191 L 262.328 198.488 264.034 197.517 C 277.415 189.909,283.258 184.713,283.364 180.330 L 283.394 179.074 283.984 180.370 C 286.923 186.820,282.104 194.753,271.153 201.491 C 269.287 202.639,269.138 204.256,270.963 203.555 C 276.128 201.574,285.926 191.096,285.926 187.555 C 285.926 185.872,286.652 186.317,287.247 188.365 C 289.043 194.541,285.761 201.444,278.584 206.589 L 276.984 207.736 278.298 208.590 C 279.082 209.099,279.551 209.669,279.460 210.000 C 278.881 212.104,274.384 233.019,274.493 233.102 C 274.568 233.159,276.046 234.007,277.778 234.986 C 291.499 242.744,296.913 252.503,294.288 264.742 C 293.748 267.259,293.333 268.079,293.333 266.628 C 293.333 264.901,291.794 260.186,290.265 257.232 C 287.022 250.967,275.423 241.499,271.726 242.099 L 270.385 242.317 274.174 244.550 C 288.831 253.188,293.396 261.734,290.242 274.630 L 289.427 277.963 288.614 274.672 C 287.192 268.919,284.600 264.381,280.142 259.840 C 278.078 257.737,277.975 257.681,277.772 258.541 C 277.656 259.036,277.317 259.472,277.021 259.510 C 276.724 259.549,275.856 259.682,275.093 259.807 L 273.704 260.034 273.704 264.785 L 273.704 269.537 272.546 269.769 C 271.910 269.896,270.910 270.000,270.324 270.000 L 269.259 270.000 269.259 265.149 L 269.259 260.299 267.407 260.427 L 265.555 260.556 265.555 258.426 C 265.555 256.984,265.705 256.287,266.019 256.269 C 266.273 256.254,268.477 256.045,270.917 255.806 L 275.352 255.370 271.472 252.746 C 267.845 250.293,262.900 247.368,256.265 243.753 L 253.455 242.222 224.494 242.222 C 200.121 242.222,195.329 242.138,194.255 241.689 C 192.503 240.957,189.813 238.098,189.090 236.200 L 188.491 234.630 201.287 175.926 C 208.325 143.639,214.159 117.014,214.252 116.759 C 214.519 116.030,290.637 116.088,292.387 116.819 M185.926 239.601 C 185.926 239.789,186.357 240.456,186.885 241.083 L 187.844 242.222 186.700 242.222 C 185.737 242.222,185.556 242.081,185.556 241.327 C 185.556 240.834,185.454 240.167,185.331 239.845 C 185.207 239.523,185.290 239.259,185.516 239.259 C 185.741 239.259,185.926 239.413,185.926 239.601 M158.913 251.124 C 160.546 251.998,159.170 254.815,157.111 254.815 C 155.053 254.815,154.482 252.829,156.161 251.508 C 157.254 250.649,157.865 250.563,158.913 251.124 M126.596 256.204 C 131.350 269.211,131.263 268.716,128.892 269.224 C 126.323 269.775,126.042 269.744,125.819 268.889 C 125.502 267.679,122.441 268.013,122.106 269.294 C 121.903 270.070,118.049 270.369,117.601 269.643 C 117.403 269.322,120.128 259.060,121.063 256.605 C 121.484 255.501,122.009 255.290,124.501 255.228 C 126.060 255.189,126.259 255.282,126.596 256.204 M141.565 256.073 C 141.979 258.242,141.497 259.259,140.051 259.263 C 137.530 259.271,135.926 259.688,135.926 260.335 C 135.926 260.861,136.262 260.912,138.426 260.716 C 141.531 260.434,141.481 260.404,141.481 262.592 L 141.481 264.399 139.907 264.604 C 139.042 264.717,137.833 264.852,137.222 264.905 C 136.132 264.998,136.109 265.043,136.002 267.276 C 135.881 269.799,135.666 269.985,132.870 269.995 L 131.481 270.000 131.481 263.137 C 131.481 257.986,131.597 256.229,131.944 256.097 C 132.590 255.852,137.610 255.291,139.679 255.233 C 141.213 255.190,141.413 255.279,141.565 256.073 M183.761 261.481 C 186.417 269.124,186.411 268.736,183.894 269.258 C 181.761 269.701,181.111 269.566,181.111 268.682 C 181.111 268.104,180.378 268.017,178.565 268.380 C 177.762 268.540,177.407 268.824,177.407 269.306 C 177.407 270.035,173.252 270.397,172.825 269.705 C 172.724 269.543,173.499 266.359,174.545 262.628 C 176.663 255.081,176.608 255.158,179.800 255.293 L 181.638 255.370 183.761 261.481 M211.890 256.026 C 217.281 259.627,213.405 269.984,206.667 269.984 C 199.241 269.984,198.524 258.318,205.792 255.728 C 208.025 254.932,210.427 255.049,211.890 256.026 M159.405 256.141 C 159.528 256.464,159.630 259.551,159.630 263.002 L 159.630 269.278 158.680 269.639 C 158.157 269.837,157.074 270.000,156.272 270.000 L 154.815 270.000 154.815 262.989 C 154.815 256.012,154.819 255.977,155.648 255.817 C 157.650 255.431,159.183 255.564,159.405 256.141 M170.595 256.311 C 171.641 256.709,171.683 257.046,170.881 258.630 C 169.863 260.641,169.319 261.076,168.214 260.764 C 166.351 260.239,164.815 261.330,164.815 263.179 C 164.815 265.336,166.367 266.112,168.487 265.016 C 170.441 264.006,172.635 267.371,170.917 268.741 C 168.054 271.024,163.001 270.617,161.263 267.964 C 157.315 261.939,163.870 253.754,170.595 256.311 M221.391 258.411 L 223.333 261.266 223.333 258.628 L 223.333 255.991 224.799 255.743 C 227.836 255.230,227.778 255.093,227.778 262.798 L 227.778 269.621 226.389 269.843 C 225.625 269.965,224.868 270.056,224.707 270.044 C 224.546 270.032,223.379 268.643,222.114 266.956 L 219.815 263.889 219.708 267.148 L 219.600 270.406 217.485 270.296 L 215.370 270.185 215.370 263.351 L 215.370 256.517 217.037 256.073 C 217.954 255.828,218.871 255.612,219.076 255.592 C 219.280 255.572,220.322 256.840,221.391 258.411 M234.683 258.192 L 236.481 260.828 236.590 258.407 L 236.699 255.986 238.149 255.741 C 241.422 255.188,241.579 255.558,241.416 263.436 C 241.283 269.848,241.356 269.618,239.358 269.886 C 237.917 270.079,237.910 270.074,235.640 267.030 L 233.365 263.981 233.256 267.083 L 233.148 270.185 231.019 270.296 L 228.889 270.407 228.889 263.404 L 228.889 256.402 230.463 256.023 C 231.329 255.815,232.228 255.624,232.461 255.600 C 232.694 255.576,233.694 256.742,234.683 258.192 M252.217 257.337 C 252.208 259.429,251.860 259.701,248.931 259.911 C 246.762 260.066,246.296 260.212,246.296 260.735 C 246.296 261.294,246.628 261.349,249.074 261.192 L 251.852 261.014 251.852 262.871 L 251.852 264.728 249.074 264.988 C 247.026 265.180,246.296 265.388,246.296 265.781 C 246.296 266.220,246.815 266.270,249.259 266.067 L 252.222 265.819 252.222 267.678 C 252.222 269.874,252.338 269.825,246.129 270.227 L 242.222 270.479 242.222 263.590 L 242.222 256.700 243.426 256.483 C 245.162 256.169,251.616 255.680,251.944 255.837 C 252.097 255.910,252.220 256.585,252.217 257.337 M151.284 256.452 C 153.823 257.513,154.653 261.535,152.970 264.617 L 152.093 266.221 153.130 267.453 L 154.166 268.684 152.762 269.898 C 150.985 271.433,151.079 271.450,149.432 269.291 C 147.902 267.284,147.142 267.199,146.966 269.013 C 146.856 270.142,146.777 270.193,144.815 270.406 C 142.057 270.704,142.222 271.143,142.222 263.504 C 142.222 255.911,141.952 256.735,144.630 256.168 C 146.352 255.804,150.117 255.965,151.284 256.452 M199.094 256.713 C 199.692 257.311,197.665 261.014,196.822 260.862 C 196.627 260.827,196.021 260.686,195.475 260.549 C 193.414 260.031,191.642 263.441,193.175 264.974 C 193.906 265.705,195.062 265.712,196.438 264.994 C 197.627 264.374,197.883 264.549,199.128 266.831 C 200.739 269.785,192.953 271.451,190.045 268.774 C 186.589 265.593,188.139 258.593,192.778 256.432 C 194.232 255.755,198.317 255.936,199.094 256.713 M263.909 256.713 C 264.507 257.311,262.480 261.014,261.637 260.862 C 261.442 260.827,260.836 260.686,260.290 260.549 C 258.229 260.031,256.457 263.441,257.989 264.974 C 258.721 265.705,259.877 265.712,261.253 264.994 C 262.442 264.374,262.698 264.549,263.943 266.831 C 265.554 269.785,257.768 271.451,254.860 268.774 C 251.404 265.593,252.954 258.593,257.593 256.432 C 259.047 255.755,263.132 255.936,263.909 256.713 M147.037 261.852 C 147.037 263.818,147.195 263.953,148.686 263.274 C 149.803 262.765,150.055 260.613,149.044 260.225 C 147.429 259.605,147.037 259.923,147.037 261.852 M207.037 260.263 C 204.559 261.174,204.444 265.185,206.896 265.185 C 208.217 265.185,208.880 264.795,209.458 263.677 C 210.673 261.328,209.322 259.422,207.037 260.263 M123.586 262.983 C 123.237 264.287,123.270 264.444,123.889 264.444 C 124.488 264.444,124.556 263.938,124.110 262.798 C 123.849 262.130,123.810 262.144,123.586 262.983 M178.895 262.655 C 178.891 262.995,178.788 263.536,178.664 263.859 C 178.517 264.243,178.644 264.444,179.034 264.444 C 179.694 264.444,179.815 263.452,179.259 262.593 C 178.949 262.112,178.899 262.121,178.895 262.655 " stroke="none" fill="#fbfbfb" fill-rule="evenodd"></path><path id="path2" d="M168.391 117.500 C 168.112 118.162,156.110 146.302,141.720 180.034 C 127.329 213.765,115.556 241.559,115.556 241.797 C 115.556 242.122,119.752 242.206,132.441 242.133 L 149.327 242.037 155.379 227.836 L 161.432 213.635 153.602 204.503 L 145.773 195.370 157.275 195.273 L 168.777 195.175 178.177 172.032 C 183.347 159.303,187.689 148.889,187.825 148.889 C 188.310 148.889,187.649 192.522,187.061 199.348 C 187.048 199.498,180.620 199.665,172.777 199.718 L 158.516 199.815 171.758 214.750 C 181.131 225.322,185.038 229.488,185.131 229.009 C 185.203 228.638,190.745 203.184,197.446 172.447 C 204.147 141.709,209.630 116.501,209.630 116.428 C 209.630 116.356,200.465 116.296,189.264 116.296 L 168.899 116.296 168.391 117.500 M185.556 240.864 C 185.556 242.075,185.658 242.222,186.507 242.222 L 187.458 242.222 186.627 241.019 C 186.169 240.356,185.741 239.745,185.675 239.660 C 185.610 239.576,185.556 240.117,185.556 240.864 M155.926 251.852 C 154.581 253.197,155.236 254.444,157.288 254.444 C 158.843 254.444,159.909 253.066,159.273 251.877 C 158.737 250.876,156.916 250.862,155.926 251.852 M123.523 255.460 C 121.395 255.677,121.398 255.671,119.440 262.774 C 117.439 270.034,117.418 269.544,119.742 269.862 C 121.340 270.081,121.488 270.031,121.818 269.162 C 122.284 267.937,125.392 267.520,125.973 268.606 C 126.370 269.348,127.348 269.426,129.340 268.873 L 130.716 268.490 128.511 262.141 C 126.559 256.519,125.850 255.050,125.185 255.253 C 125.083 255.284,124.335 255.377,123.523 255.460 M137.222 255.602 C 131.207 256.112,131.852 255.216,131.852 263.063 L 131.851 269.815 133.686 269.688 L 135.521 269.561 135.725 268.021 C 135.837 267.174,135.886 266.154,135.835 265.753 C 135.729 264.937,136.822 264.564,139.537 264.488 L 141.111 264.444 141.111 262.555 L 141.111 260.666 138.519 260.926 L 135.926 261.186 135.926 260.223 C 135.926 259.357,136.067 259.259,137.315 259.255 C 140.989 259.244,141.481 258.977,141.481 256.989 C 141.481 255.997,141.356 255.208,141.204 255.236 C 141.051 255.264,139.259 255.429,137.222 255.602 M178.613 255.456 C 177.622 255.546,176.917 255.830,176.708 256.225 C 176.211 257.161,172.860 269.280,173.046 269.466 C 173.829 270.249,176.669 270.030,177.067 269.155 C 177.641 267.896,180.976 267.508,181.341 268.658 C 181.570 269.382,184.881 269.341,185.617 268.605 C 186.255 267.967,181.466 255.130,180.635 255.250 C 180.388 255.285,179.478 255.378,178.613 255.456 M146.852 256.194 C 146.241 256.253,145.032 256.394,144.167 256.507 L 142.593 256.712 142.593 263.541 L 142.593 270.370 143.472 270.370 C 145.914 270.370,146.667 269.967,146.667 268.657 C 146.667 266.768,147.987 266.966,149.549 269.089 C 150.981 271.036,151.111 271.061,152.649 269.687 L 153.829 268.633 152.813 267.301 L 151.797 265.970 152.626 264.848 C 155.882 260.445,152.666 255.627,146.852 256.194 M155.040 256.512 C 154.749 257.269,154.754 263.054,155.049 266.852 L 155.279 269.815 157.269 269.688 L 159.259 269.561 159.259 262.744 L 159.259 255.926 157.262 255.926 C 155.782 255.926,155.206 256.078,155.040 256.512 M164.974 256.606 C 159.717 259.066,158.715 266.983,163.360 269.351 C 165.748 270.569,170.678 269.708,171.350 267.956 C 171.724 266.981,170.010 264.719,169.118 265.008 C 167.166 265.641,165.885 265.633,165.169 264.985 C 163.277 263.273,165.220 260.122,167.937 260.495 C 169.841 260.756,172.186 257.712,170.902 256.647 C 169.923 255.834,166.672 255.812,164.974 256.606 M149.556 260.444 C 150.674 261.563,149.633 263.507,147.778 263.762 C 146.903 263.882,146.846 263.782,146.740 261.944 L 146.628 260.000 147.870 260.000 C 148.552 260.000,149.311 260.200,149.556 260.444 M124.501 263.704 C 124.603 264.440,124.451 264.655,123.762 264.753 C 123.010 264.859,122.927 264.760,123.143 264.012 C 123.280 263.537,123.482 262.829,123.592 262.440 C 123.833 261.585,124.294 262.226,124.501 263.704 M179.802 264.465 C 179.000 265.763,178.279 264.452,178.775 262.596 C 179.021 261.677,179.025 261.679,179.520 262.894 C 179.794 263.565,179.921 264.272,179.802 264.465 " stroke="none" fill="#040404" fill-rule="evenodd"></path><path id="path3" d="M187.879 161.111 C 187.879 162.028,187.951 162.403,188.039 161.944 C 188.127 161.486,188.127 160.736,188.039 160.278 C 187.951 159.819,187.879 160.194,187.879 161.111 M187.513 175.370 C 187.516 176.389,187.588 176.762,187.673 176.199 C 187.758 175.636,187.756 174.802,187.668 174.347 C 187.580 173.891,187.511 174.352,187.513 175.370 M187.143 189.444 C 187.146 190.463,187.218 190.836,187.303 190.273 C 187.388 189.710,187.386 188.876,187.298 188.421 C 187.210 187.965,187.140 188.426,187.143 189.444 M278.310 196.019 L 277.222 197.222 278.426 196.134 C 279.088 195.536,279.630 194.994,279.630 194.931 C 279.630 194.645,279.324 194.896,278.310 196.019 M263.426 197.820 C 262.764 198.244,262.220 198.450,262.217 198.277 C 262.213 198.104,262.088 198.154,261.939 198.387 C 261.444 199.159,249.309 204.772,249.122 204.316 C 249.022 204.072,248.935 204.131,248.918 204.456 C 248.901 204.794,247.687 205.569,245.917 206.373 L 242.945 207.723 243.184 209.325 C 244.087 215.398,244.596 215.357,258.981 208.061 L 264.815 205.102 264.815 201.070 C 264.815 198.852,264.773 197.040,264.722 197.043 C 264.671 197.047,264.088 197.396,263.426 197.820 M282.020 203.426 L 280.556 205.000 282.130 203.536 C 282.995 202.731,283.704 202.022,283.704 201.962 C 283.704 201.682,283.381 201.962,282.020 203.426 M263.333 207.973 C 260.787 209.256,255.912 211.529,252.501 213.023 C 249.089 214.518,246.297 215.831,246.297 215.942 C 246.296 216.244,249.577 218.648,251.491 219.749 L 253.167 220.714 260.241 217.210 C 268.734 213.004,268.203 213.550,268.069 209.154 L 267.963 205.640 263.333 207.973 M225.278 255.811 C 225.634 255.904,226.218 255.904,226.574 255.811 C 226.931 255.718,226.639 255.641,225.926 255.641 C 225.213 255.641,224.921 255.718,225.278 255.811 M238.611 255.811 C 238.968 255.904,239.551 255.904,239.907 255.811 C 240.264 255.718,239.972 255.641,239.259 255.641 C 238.546 255.641,238.255 255.718,238.611 255.811 M251.843 257.332 L 252.021 259.074 252.147 257.636 C 252.216 256.846,252.136 256.062,251.968 255.894 C 251.801 255.727,251.744 256.374,251.843 257.332 M159.412 262.778 C 159.413 266.444,159.468 267.894,159.535 266.000 C 159.603 264.105,159.602 261.105,159.535 259.333 C 159.467 257.561,159.412 259.111,159.412 262.778 M215.350 256.772 C 215.249 257.034,215.213 260.159,215.269 263.717 L 215.370 270.185 217.407 270.213 L 219.444 270.240 217.484 270.101 L 215.524 269.962 215.632 263.129 C 215.739 256.404,215.713 255.825,215.350 256.772 M241.262 262.593 C 241.262 265.954,241.318 267.329,241.387 265.648 C 241.455 263.968,241.455 261.218,241.387 259.537 C 241.318 257.856,241.262 259.231,241.262 262.593 M277.331 258.499 C 277.243 259.099,277.308 259.506,277.474 259.403 C 277.641 259.300,277.778 258.866,277.778 258.439 C 277.778 257.672,277.788 257.671,278.611 258.369 L 279.444 259.074 278.739 258.241 C 277.805 257.138,277.523 257.189,277.331 258.499 M140.624 260.627 C 140.866 260.799,141.133 261.770,141.217 262.785 L 141.370 264.630 141.333 262.622 C 141.307 261.173,141.142 260.572,140.741 260.464 C 140.355 260.360,140.319 260.410,140.624 260.627 M251.592 262.963 C 251.592 264.083,251.662 264.542,251.747 263.981 C 251.832 263.421,251.832 262.505,251.747 261.944 C 251.662 261.384,251.592 261.843,251.592 262.963 M233.037 266.741 L 232.963 269.963 230.833 270.097 L 228.704 270.230 230.845 270.300 C 233.404 270.384,233.410 270.375,233.239 266.449 L 233.112 263.519 233.037 266.741 M251.963 267.778 C 251.963 268.898,252.032 269.356,252.117 268.796 C 252.202 268.236,252.202 267.319,252.117 266.759 C 252.032 266.199,251.963 266.657,251.963 267.778 M142.360 269.045 C 142.391 269.994,142.600 270.550,142.963 270.648 C 143.342 270.750,143.381 270.699,143.086 270.488 C 142.848 270.318,142.576 269.597,142.483 268.886 C 142.320 267.647,142.315 267.654,142.360 269.045 " stroke="none" fill="#9eaaaf" fill-rule="evenodd"></path><path id="path4" d="M187.899 165.000 C 187.901 166.426,187.968 166.964,188.048 166.195 C 188.128 165.427,188.127 164.260,188.045 163.603 C 187.963 162.945,187.898 163.574,187.899 165.000 M187.526 179.259 C 187.526 180.583,187.593 181.125,187.675 180.463 C 187.757 179.801,187.757 178.718,187.675 178.056 C 187.593 177.394,187.526 177.935,187.526 179.259 M283.496 180.966 C 282.028 185.533,277.503 189.803,268.589 195.030 L 264.849 197.222 264.832 201.219 L 264.815 205.216 266.574 204.195 C 280.094 196.350,285.650 189.607,284.377 182.590 C 283.954 180.255,283.810 179.989,283.496 180.966 M285.905 188.261 C 284.732 192.923,276.832 200.808,269.745 204.392 L 268.195 205.177 268.079 209.219 C 267.946 213.869,267.446 213.677,272.222 210.810 C 283.590 203.988,289.007 196.414,287.406 189.578 C 286.679 186.471,286.415 186.239,285.905 188.261 M187.156 193.333 C 187.156 194.657,187.223 195.199,187.305 194.537 C 187.387 193.875,187.387 192.792,187.305 192.130 C 187.223 191.468,187.156 192.009,187.156 193.333 M157.500 255.811 C 157.856 255.904,158.440 255.904,158.796 255.811 C 159.153 255.718,158.861 255.641,158.148 255.641 C 157.435 255.641,157.144 255.718,157.500 255.811 M131.633 262.778 C 131.633 266.241,131.688 267.707,131.757 266.037 C 131.825 264.366,131.826 261.533,131.758 259.740 C 131.689 257.948,131.633 259.315,131.633 262.778 M142.367 262.963 C 142.367 265.713,142.426 266.838,142.497 265.463 C 142.568 264.088,142.568 261.838,142.497 260.463 C 142.426 259.088,142.367 260.213,142.367 262.963 M146.667 262.756 C 146.667 263.253,146.803 263.744,146.970 263.847 C 147.137 263.951,147.201 263.544,147.113 262.943 C 146.919 261.620,146.667 261.514,146.667 262.756 M122.963 264.537 C 122.963 264.690,123.286 264.815,123.682 264.815 C 124.077 264.815,124.478 264.690,124.572 264.537 C 124.667 264.384,124.343 264.259,123.854 264.259 C 123.364 264.259,122.963 264.384,122.963 264.537 M154.926 267.778 C 154.926 268.898,154.995 269.356,155.080 268.796 C 155.165 268.236,155.165 267.319,155.080 266.759 C 154.995 266.199,154.926 266.657,154.926 267.778 " stroke="none" fill="#848484" fill-rule="evenodd"></path></g></svg>